HIERARCHY
ROOT joint_Root
{
	OFFSET 0.0 0.0 0.0
	CHANNELS 6 Xposition Yposition Zposition Zrotation Xrotation Yrotation 
	JOINT Hips
	{
		OFFSET 4.5925 91.4895 -427.239
		CHANNELS 6 Xposition Yposition Zposition Zrotation Xrotation Yrotation 
		JOINT Spine
		{
			OFFSET 15.7357 0.0 0.0
			CHANNELS 6 Xposition Yposition Zposition Zrotation Xrotation Yrotation 
			JOINT Chest
			{
				OFFSET 8.98455 -0.406207 0.0
				CHANNELS 6 Xposition Yposition Zposition Zrotation Xrotation Yrotation 
				JOINT Neck
				{
					OFFSET 16.3773 0.0 0.0
					CHANNELS 6 Xposition Yposition Zposition Zrotation Xrotation Yrotation 
					JOINT Head
					{
						OFFSET 6.45672 0.0 0.0
						CHANNELS 6 Xposition Yposition Zposition Zrotation Xrotation Yrotation 
						End Site
						{
							OFFSET 0.0 0.0 0.0
						}
					}
				}
				JOINT Shoulder_L
				{
					OFFSET 12.9942 -0.242716 4.98039
					CHANNELS 6 Xposition Yposition Zposition Zrotation Xrotation Yrotation 
					JOINT UpperArm_L
					{
						OFFSET 5.34809 0.0 0.0
						CHANNELS 6 Xposition Yposition Zposition Zrotation Xrotation Yrotation 
						JOINT LowerArm_L
						{
							OFFSET 24.3286 1.87007e-05 0.0
							CHANNELS 6 Xposition Yposition Zposition Zrotation Xrotation Yrotation 
							JOINT Hand_L
							{
								OFFSET 22.2916 0.0 0.0
								CHANNELS 6 Xposition Yposition Zposition Zrotation Xrotation Yrotation 
								End Site
								{
									OFFSET 0.0 0.0 0.0
								}
							}
						}
					}
				}
				JOINT Shoulder_R
				{
					OFFSET 12.9945 -0.242716 -4.98039
					CHANNELS 6 Xposition Yposition Zposition Zrotation Xrotation Yrotation 
					JOINT UpperArm_R
					{
						OFFSET -5.34813 0.0 0.0
						CHANNELS 6 Xposition Yposition Zposition Zrotation Xrotation Yrotation 
						JOINT LowerArm_R
						{
							OFFSET -24.3289 0.000322201 0.0
							CHANNELS 6 Xposition Yposition Zposition Zrotation Xrotation Yrotation 
							JOINT Hand_R
							{
								OFFSET -22.2915 -0.000108084 0.0
								CHANNELS 6 Xposition Yposition Zposition Zrotation Xrotation Yrotation 
								End Site
								{
									OFFSET 0.0 0.0 0.0
								}
							}
						}
					}
				}
			}
		}
		JOINT UpperLeg_L
		{
			OFFSET -2.19248 -6.46944 0.0
			CHANNELS 6 Xposition Yposition Zposition Zrotation Xrotation Yrotation 
			JOINT LowerLeg_L
			{
				OFFSET 39.0811 0.0 -1.23785e-05
				CHANNELS 6 Xposition Yposition Zposition Zrotation Xrotation Yrotation 
				JOINT Foot_L
				{
					OFFSET 40.9854 0.0 -1.26872e-05
					CHANNELS 6 Xposition Yposition Zposition Zrotation Xrotation Yrotation 
					JOINT Toes_L
					{
						OFFSET 11.7543 0.0 0.0
						CHANNELS 6 Xposition Yposition Zposition Zrotation Xrotation Yrotation 
						End Site
						{
							OFFSET 0.0 0.0 0.0
						}
					}
				}
			}
		}
		JOINT UpperLeg_R
		{
			OFFSET -2.19251 6.46944 0.0
			CHANNELS 6 Xposition Yposition Zposition Zrotation Xrotation Yrotation 
			JOINT LowerLeg_R
			{
				OFFSET -39.0811 -0.00228153 -0.0401928
				CHANNELS 6 Xposition Yposition Zposition Zrotation Xrotation Yrotation 
				JOINT Foot_R
				{
					OFFSET -40.9854 0.0 0.0
					CHANNELS 6 Xposition Yposition Zposition Zrotation Xrotation Yrotation 
					JOINT Toes_R
					{
						OFFSET -11.7543 0.0 0.0
						CHANNELS 6 Xposition Yposition Zposition Zrotation Xrotation Yrotation 
						End Site
						{
							OFFSET 0.0 0.0 0.0
						}
					}
				}
			}
		}
	}
}
MOTION
Frames:	6
Frame Time:	0.0333333
0.000000 0.000000 0.000000 0.000000 0.000000 -0.000000 0.167727 82.530900 1.502730 89.725400 -2.824700 11.866700 15.735700 0.000005 -0.000001 89.740800 80.021300 -89.946900 8.984550 -0.406207 -0.000000 12.191000 -0.097401 -0.401682 16.377300 -0.000001 -0.000001 -3.884510 -2.955340 1.228570 6.456720 -0.000001 -0.000000 -6.075240 -2.581840 2.626820 12.994200 -0.242716 4.980390 -90.924400 3.255380 -74.138600 5.348090 -0.000007 -0.000001 -68.530100 38.969700 -5.040180 24.328600 0.000019 0.000005 8.510020 34.108900 -14.944100 22.291600 -0.000001 0.000005 -0.322552 5.318640 -0.455640 12.994500 -0.242716 -4.980390 88.823600 7.842310 -81.440300 -5.348130 -0.000001 -0.000004 -63.079700 43.803200 -7.638840 -24.328900 0.000322 -0.000009 3.861080 22.407200 -10.043700 -22.291500 -0.000108 -0.000004 -11.283200 5.284940 0.578755 -2.192480 -6.469440 -0.000000 -175.395000 -9.568760 -11.352500 39.081100 -0.000007 -0.000012 -0.612130 0.347922 60.388400 40.985400 -0.000006 -0.000013 -0.313520 1.178000 -87.032500 11.754300 -0.000000 0.000003 -0.000402 -0.003321 -16.700000 -2.192510 6.469440 -0.000001 175.626000 10.751300 169.322000 -39.081100 -0.002282 -0.040193 0.087747 -0.047078 60.891200 -40.985400 0.000008 0.000006 5.125720 1.469630 -86.860500 -11.754300 -0.000006 -0.000006 -1.278210 -1.584300 -17.262500
0.000000 0.000000 0.000000 0.000000 0.000000 -0.000000 0.076312 84.559600 1.851600 89.764700 -2.013000 11.890500 15.735700 0.000005 -0.000001 89.056700 81.152500 -89.254200 8.984550 -0.406207 -0.000000 9.926280 -0.293226 -0.369294 16.377300 -0.000001 -0.000001 -1.011670 -3.195050 1.200070 6.456720 -0.000001 -0.000000 -3.697040 -2.641150 2.247520 12.994200 -0.242716 4.980390 -90.603100 2.070920 -73.755000 5.348090 -0.000007 -0.000001 -60.269200 32.879700 -17.529200 24.328600 0.000019 0.000005 7.685810 26.808500 -16.658900 22.291600 -0.000001 0.000005 2.182120 5.317090 -0.419582 12.994500 -0.242716 -4.980390 89.050100 5.850430 -80.759100 -5.348130 -0.000001 -0.000004 -55.609500 38.991100 -19.353100 -24.328900 0.000322 -0.000009 3.332990 18.266300 -10.530000 -22.291500 -0.000108 -0.000004 -11.850000 5.242500 1.650710 -2.192480 -6.469440 -0.000000 -175.409000 -9.242480 -8.222930 39.081100 -0.000007 -0.000012 -0.516639 0.371710 54.267000 40.985400 -0.000006 -0.000013 -0.204280 1.705390 -84.045200 11.754300 -0.000000 0.000003 -0.000381 -0.003175 -16.694900 -2.192510 6.469440 -0.000001 175.386000 11.620300 172.663000 -39.081100 -0.002282 -0.040193 0.076655 -0.051751 54.823800 -40.985400 0.000008 0.000006 5.135960 1.893570 -83.961400 -11.754300 -0.000006 -0.000006 -1.239740 -1.530240 -17.408700
0.000000 0.000000 0.000000 0.000000 0.000000 -0.000000 0.021197 86.802100 1.996160 89.989800 -1.769030 11.115400 15.735700 0.000005 -0.000001 89.089300 82.918000 -89.400000 8.984550 -0.406207 -0.000000 6.395740 -0.220750 -0.608376 16.377300 -0.000001 -0.000001 4.101470 -3.131960 1.342430 6.456720 -0.000001 -0.000000 -0.141729 -2.814920 2.124940 12.994200 -0.242716 4.980390 -90.271900 0.902639 -73.238200 5.348090 -0.000007 -0.000001 -52.066800 24.183200 -32.759000 24.328600 0.000019 0.000005 10.646300 29.635800 -20.812000 22.291600 -0.000001 0.000005 4.147730 5.313010 -0.292542 12.994500 -0.242716 -4.980390 89.302100 3.948800 -79.965800 -5.348130 -0.000001 -0.000004 -47.514800 30.794100 -33.115100 -24.328900 0.000322 -0.000009 4.068080 17.492000 -13.313900 -22.291500 -0.000108 -0.000004 -5.252560 5.307030 -0.054720 -2.192480 -6.469440 -0.000000 -175.698000 -9.494840 -5.243250 39.081100 -0.000007 -0.000012 -0.407649 0.384447 46.678800 40.985400 -0.000006 -0.000013 -0.167607 2.153710 -80.220600 11.754300 -0.000000 0.000003 -0.000313 -0.002697 -16.677900 -2.192510 6.469440 -0.000001 174.839000 13.180800 175.389000 -39.081100 -0.002282 -0.040193 0.059033 -0.050552 47.813800 -40.985400 0.000008 0.000006 5.490910 3.624350 -79.957500 -11.754300 -0.000006 -0.000006 -1.341180 -1.641260 -17.880200
0.000000 0.000000 0.000000 0.000000 0.000000 -0.000000 -0.036216 88.524700 1.876270 89.878400 -1.817500 9.900110 15.735700 0.000005 -0.000001 89.044600 84.515400 -89.290700 8.984550 -0.406207 -0.000000 3.201420 -0.172897 -0.486895 16.377300 -0.000001 -0.000001 8.290680 -3.051420 1.401290 6.456720 -0.000001 -0.000000 3.580200 -2.594970 1.749360 12.994200 -0.242716 4.980390 -89.843100 -0.538854 -73.740600 5.348090 -0.000007 -0.000001 -46.757300 12.246400 -47.202100 24.328600 0.000019 0.000005 13.713100 27.796400 -27.628300 22.291600 -0.000001 0.000005 7.431330 5.331880 -0.826748 12.994500 -0.242716 -4.980390 89.593200 2.204220 -79.541100 -5.348130 -0.000001 -0.000004 -41.193000 18.151900 -46.821400 -24.328900 0.000322 -0.000009 6.043450 16.365300 -20.605100 -22.291500 -0.000108 -0.000004 3.150810 5.388360 -2.456400 -2.192480 -6.469440 -0.000000 -175.691000 -9.970060 -3.398650 39.081100 -0.000007 -0.000012 -0.323346 0.382518 40.208800 40.985400 -0.000006 -0.000013 -0.165164 2.582360 -76.799700 11.754300 -0.000000 0.000003 -0.000247 -0.002208 -16.660300 -2.192510 6.469440 -0.000001 174.639000 15.285400 177.077000 -39.081100 -0.002282 -0.040193 0.045375 -0.047185 41.741300 -40.985400 0.000008 0.000006 5.982970 6.043580 -76.409700 -11.754300 -0.000006 -0.000006 -1.379360 -1.671920 -18.322500
0.000000 0.000000 0.000000 0.000000 0.000000 -0.000000 -0.118277 89.536800 1.574830 89.642600 -2.094090 8.742250 15.735700 0.000005 -0.000001 88.552500 85.435700 -88.675500 8.984550 -0.406207 -0.000000 1.359380 -0.223600 -0.243000 16.377300 -0.000001 -0.000001 9.740700 -2.839720 1.557740 6.456720 -0.000001 -0.000000 5.702940 -2.217060 1.198700 12.994200 -0.242716 4.980390 -89.166100 -2.994180 -74.426400 5.348090 -0.000007 -0.000001 -44.273000 -1.638290 -59.758100 24.328600 0.000019 0.000005 16.405600 21.787600 -38.428100 22.291600 -0.000001 0.000005 15.213200 5.374560 -2.086830 12.994500 -0.242716 -4.980390 90.066800 -0.377582 -79.964300 -5.348130 -0.000001 -0.000004 -37.966900 3.169860 -58.044000 -24.328900 0.000322 -0.000009 5.644500 8.325400 -34.441000 -22.291500 -0.000108 -0.000004 13.774300 5.533940 -7.496100 -2.192480 -6.469440 -0.000000 -175.610000 -10.249600 -2.743290 39.081100 -0.000007 -0.000012 -0.266586 0.365689 36.092500 40.985400 -0.000006 -0.000013 -0.276213 2.680120 -74.485900 11.754300 -0.000000 0.000003 -0.000207 -0.001906 -16.649400 -2.192510 6.469440 -0.000001 174.856000 16.829200 178.052000 -39.081100 -0.002282 -0.040193 0.036517 -0.043799 37.188400 -40.985400 0.000008 0.000006 6.323880 7.923770 -74.651100 -11.754300 -0.000006 -0.000006 -1.000070 -1.215270 -18.035800
0.000000 0.000000 0.000000 0.000000 0.000000 -0.000000 -0.143715 90.083400 1.233200 89.453000 -2.604620 7.224000 15.735700 0.000005 -0.000001 88.299200 85.807600 -88.314400 8.984550 -0.406207 -0.000000 0.615023 -0.247836 -0.029021 16.377300 -0.000001 -0.000001 8.578600 -2.500030 1.542930 6.456720 -0.000001 -0.000000 5.573790 -1.824020 1.137460 12.994200 -0.242716 4.980390 -88.317400 -5.721720 -73.587400 5.348090 -0.000007 -0.000001 -45.657200 -17.058000 -72.481800 24.328600 0.000019 0.000005 21.625300 18.347200 -51.542800 22.291600 -0.000001 0.000005 21.973100 5.392100 -2.700690 12.994500 -0.242716 -4.980390 90.559300 -3.045240 -79.592700 -5.348130 -0.000001 -0.000004 -39.276500 -13.848300 -69.746200 -24.328900 0.000322 -0.000009 5.906180 4.993220 -49.862100 -22.291500 -0.000108 -0.000004 23.843400 5.619780 -12.512200 -2.192480 -6.469440 -0.000000 -175.814000 -10.111900 -3.383260 39.081100 -0.000007 -0.000012 -0.240005 0.358422 33.807400 40.985400 -0.000006 -0.000013 -0.519222 2.072870 -73.098800 11.754300 -0.000000 0.000003 -0.000197 -0.001826 -16.646500 -2.192510 6.469440 -0.000001 175.477000 17.236700 177.868000 -39.081100 -0.002282 -0.040193 0.030647 -0.040512 34.027300 -40.985400 0.000008 0.000006 6.401560 8.865820 -73.969700 -11.754300 -0.000006 -0.000006 -0.472168 -0.580915 -17.408600
